<?xml version="1.0" encoding="UTF-8" standalone="no"?>
<svg
   version="1.1"
   width="60.068802mm"
   height="46.5732mm"
   viewBox="0 0 227 176"
   id="svg1"
   sodipodi:docname="logo-transparent.svg"
   inkscape:export-filename="logo-transparent.svg"
   inkscape:export-xdpi="96"
   inkscape:export-ydpi="96"
   xmlns:inkscape="http://www.inkscape.org/namespaces/inkscape"
   xmlns:sodipodi="http://sodipodi.sourceforge.net/DTD/sodipodi-0.dtd"
   xmlns="http://www.w3.org/2000/svg"
   xmlns:svg="http://www.w3.org/2000/svg">
  <sodipodi:namedview
     id="namedview1"
     pagecolor="#ffffff"
     bordercolor="#000000"
     borderopacity="0.25"
     inkscape:showpageshadow="2"
     inkscape:pageopacity="0.0"
     inkscape:pagecheckerboard="0"
     inkscape:deskcolor="#d1d1d1"
     inkscape:document-units="mm">
    <inkscape:page
       x="0"
       y="0"
       width="227"
       height="176"
       id="page2"
       margin="0"
       bleed="0" />
  </sodipodi:namedview>
  <defs
     id="defs1" />
  <path
     style="fill:#000000"
     d="M 83.490597,52.261451 C 91.059183,39.714075 113.39602,3.0092885 113.9903,3.6400641 114.43589,4.1130251 122.33051,15.975 131.5339,30 140.73728,44.025 144.51743,51.524999 145.06127,52.212499 145.84854,53.207752 142.76928,58 113.56343,58 84.482791,58 82.892834,53.252436 83.490597,52.261451 Z"
     id="path3"
     sodipodi:nodetypes="ssssss" />
  <path
     style="fill:#1f6f78;fill-opacity:1"
     d="m 39,116.51504 c 0,-0.26672 6.355962,-10.05422 14.12436,-21.749995 L 67.24872,73.5 c 19.017977,-1.965605 74.4435,-1.94003 92.28087,-0.254718 l 13.9852,20.990442 C 181.20666,105.78047 187.65,115.62528 187.83333,116.11308 188.02536,116.62402 156.54978,117 113.58333,117 72.5625,117 39,116.78177 39,116.51504 Z"
     id="path2" />
  <path
     style="fill:#000000"
     d="m 4.5602131,169.25 c 0.9846281,-1.5125 6.9576929,-10.5125 13.2734779,-20 L 29.316935,132 h 84.243025 84.24302 l 9.75733,14.75 c 5.36654,8.1125 11.27469,17.1125 13.12924,20 l 3.37191,5.25 H 113.41572 2.7699801 Z"
     id="path1" />
</svg>
